<svg width="51" height="50" fill="none" xmlns="http://www.w3.org/2000/svg"><path d="m27.971 7.377-.041-.13.213.276c.182.205.333.16.462 0 0 0 1.13-1.296.245-2.806-.486-1-2.405-3.377-3.414-4.122C23.61-.564 22.434.327 22.434.327c-.146.109-.253.268-.146.416l.285.293c-3.443.69-3.95 3.371-4.174 4.558l-.037.197-.463 3.22c-.147 1.123.463 1.732 1.536 1.732h3.502c1.22.017 3.763.048 5.034-3.366Z" fill="#474747"/><path d="m16.705 5.552-.374 2.603L4.478 19.12c-.45.375-.786.869-.971 1.425a3.399 3.399 0 0 0-.153.64v.854c.455.037.98 0 1.551-.127l37.505-10.76a.839.839 0 0 1 1.07.805v8.127a.835.835 0 0 1-.593.803C35.709 23.051 7.174 31.65 6.473 31.838c-.793.218-2.549.547-3.119.473v5.258c.512.07 1.043.05 1.551-.086L42.41 26.624a.836.836 0 0 1 1.071.805v7.802l1.265-.362.012-.004.07-.023c.41-.135.806-.314 1.179-.532.76-.453.828-.76.828-.798V11.67c0-.365-.15-1.013-.548-1.638-.372-.587-.9-1.062-1.593-1.291L30.846 5.494a4.035 4.035 0 0 0-.514-1.568c-.34-.673-1.01-1.593-1.658-2.385l16.849 3.95c.04.01.079.02.117.033 1.619.503 2.757 1.576 3.477 2.71.704 1.107 1.072 2.37 1.072 3.436v21.842c0 1.979-1.582 3.153-2.47 3.681a9.48 9.48 0 0 1-1.975.877l-.043.014-.015.003-.005.002s-.245.07-.004 0L4.744 49.838a1.624 1.624 0 0 1-.072.018c-1.196.285-2.554.21-3.555-.813C.22 48.127 0 46.82 0 45.655V21.112l.002-.09v-.026l.005-.037c.01-.15.028-.298.055-.446.047-.271.13-.639.273-1.06a6.507 6.507 0 0 1 1.887-2.817L17.98 2.063a6.48 6.48 0 0 0-.105.156c-.765 1.184-.998 2.42-1.112 3.025l-.007.04c-.016.09-.032.18-.05.268Z" fill="#474747"/></svg>