<svg width="40" height="50" fill="none" xmlns="http://www.w3.org/2000/svg"><path fill-rule="evenodd" clip-rule="evenodd" d="M34.415 0a5 5 0 0 1 4.968 5.55l-4.443 40A5 5 0 0 1 29.97 50H9.445a5 5 0 0 1-4.97-4.45L.03 5.55A5 5 0 0 1 5 0h29.415Zm0 5H5l1.063 9.557a20.882 20.882 0 0 1 2.717-.335c2.998-.175 7.14.186 11.913 2.23 3.977 1.705 7.335 1.97 9.65 1.833a15.13 15.13 0 0 0 2.637-.375L34.415 5Zm-2.012 18.1c-.53.075-1.123.14-1.768.175-2.997.178-7.14-.182-11.912-2.225-3.978-1.707-7.335-1.973-9.65-1.835-.826.046-1.647.158-2.455.335L9.445 45H29.97l2.433-21.9Zm-15.195 4.4a2.5 2.5 0 1 1-5.001 0 2.5 2.5 0 0 1 5 0Zm5 10a2.5 2.5 0 1 0 0-5 2.5 2.5 0 0 0 0 5Z" fill="#474747"/></svg>