<svg aria-hidden="true" style="position:absolute;width:0;height:0;overflow:hidden" xmlns="http://www.w3.org/2000/svg">
  <defs>
    <symbol id="menu" viewBox="0 0 24 24">
      <path d="M3 6h18v2.016H3V6zm0 6.984v-1.969h18v1.969H3zM3 18v-2.016h18V18H3z"/>
    </symbol>
    <symbol id="close" viewBox="0 0 24 24">
      <path d="M18.984 6.422 13.406 12l5.578 5.578-1.406 1.406L12 13.406l-5.578 5.578-1.406-1.406L10.594 12 5.016 6.422l1.406-1.406L12 10.594l5.578-5.578z"/>
    </symbol>
    <symbol id="calendar" viewBox="0 0 24 24">
      <path d="M7 2v1H5a2.997 2.997 0 0 0-3 3v14a2.997 2.997 0 0 0 3 3h14a2.997 2.997 0 0 0 3-3V6a2.997 2.997 0 0 0-3-3h-2V2a1 1 0 0 0-2 0v1H9V2a1 1 0 0 0-2 0zm13 7H4V6c0-.276.111-.525.293-.707S4.724 5 5 5h2v1a1 1 0 0 0 2 0V5h6v1a1 1 0 0 0 2 0V5h2c.276 0 .525.111.707.293S20 5.724 20 6zM4 11h16v9c0 .276-.111.525-.293.707S19.276 21 19 21H5c-.276 0-.525-.111-.707-.293S4 20.276 4 20z"/>
    </symbol>
    <symbol id="clock" viewBox="0 0 24 24">
      <path d="M23 12c0-3.037-1.232-5.789-3.222-7.778S15.037 1 12 1 6.211 2.232 4.222 4.222 1 8.963 1 12s1.232 5.789 3.222 7.778S8.963 23 12 23s5.789-1.232 7.778-3.222S23 15.037 23 12zm-2 0c0 2.486-1.006 4.734-2.636 6.364S14.486 21 12 21s-4.734-1.006-6.364-2.636S3 14.486 3 12s1.006-4.734 2.636-6.364S9.514 3 12 3s4.734 1.006 6.364 2.636S21 9.514 21 12zM11 6v6a1 1 0 0 0 .553.894l4 2a1 1 0 0 0 .895-1.789L13 11.382V6a1 1 0 0 0-2 0z"/>
    </symbol>
    <symbol id="envelope" viewBox="0 0 24 24">
      <path d="m3 7.921 8.427 5.899c.34.235.795.246 1.147 0L21 7.921V18c0 .272-.11.521-.295.705S20.272 19 20 19H4c-.272 0-.521-.11-.705-.295S3 18.272 3 18zM1 5.983V18c0 .828.34 1.579.88 2.12S3.172 21 4 21h16c.828 0 1.579-.34 2.12-.88S23 18.828 23 18V5.982a2.995 2.995 0 0 0-.88-2.102A2.998 2.998 0 0 0 20 3H4c-.828 0-1.579.34-2.12.88A2.995 2.995 0 0 0 1 5.983zm19.894-.429L12 11.779 3.106 5.554a.999.999 0 0 1 .188-.259A.994.994 0 0 1 4 5h16a1.016 1.016 0 0 1 .893.554z"/>
    </symbol>
    <symbol id="map-pin" viewBox="0 0 24 24">
      <path d="M22 10c0-2.761-1.12-5.263-2.929-7.071S14.761 0 12 0 6.737 1.12 4.929 2.929 2 7.239 2 10c0 .569.053 1.128.15 1.676.274 1.548.899 3.004 1.682 4.32 2.732 4.591 7.613 7.836 7.613 7.836.331.217.765.229 1.109 0 0 0 4.882-3.245 7.613-7.836.783-1.316 1.408-2.772 1.682-4.32A9.506 9.506 0 0 0 22 10zm-2 0c0 .444-.041.887-.119 1.328-.221 1.25-.737 2.478-1.432 3.646-1.912 3.214-5.036 5.747-6.369 6.74-1.398-.916-4.588-3.477-6.53-6.74-.695-1.168-1.211-2.396-1.432-3.646A7.713 7.713 0 0 1 4 10c0-2.209.894-4.208 2.343-5.657S9.791 2 12 2s4.208.894 5.657 2.343S20 7.791 20 10zm-4 0c0-1.104-.449-2.106-1.172-2.828a3.994 3.994 0 0 0-5.656 0 3.994 3.994 0 0 0 0 5.656 3.994 3.994 0 0 0 5.656 0A3.994 3.994 0 0 0 16 10zm-2 0c0 .553-.223 1.051-.586 1.414S12.553 12 12 12s-1.051-.223-1.414-.586S10 10.553 10 10s.223-1.051.586-1.414S11.447 8 12 8s1.051.223 1.414.586S14 9.447 14 10z"/>
    </symbol>
    <symbol id="phone" viewBox="0 0 24 24">
      <path d="M23 16.92a3.006 3.006 0 0 0-2.598-3.023c-.8-.098-1.695-.314-2.586-.646a3.045 3.045 0 0 0-1.344-.174 2.987 2.987 0 0 0-1.819.855l-.72.72a14.84 14.84 0 0 1-4.583-4.589l.726-.726c.322-.33.563-.726.707-1.156a2.992 2.992 0 0 0-.039-2.011 11.591 11.591 0 0 1-.644-2.595 3.02 3.02 0 0 0-.963-1.804A2.982 2.982 0 0 0 7.11 1H4.114a2.998 2.998 0 0 0-2.989 3.277c.3 3.076 1.365 6.243 3.216 9.102 1.502 2.413 3.648 4.623 6.298 6.306 2.568 1.697 5.684 2.862 9.086 3.231a2.994 2.994 0 0 0 2.406-.874c.54-.544.873-1.297.87-2.121zm-2 0v3a.997.997 0 0 1-.996 1.008c-3.149-.336-5.961-1.391-8.263-2.912-2.428-1.543-4.359-3.537-5.702-5.694-1.697-2.62-2.655-5.481-2.924-8.238-.024-.268.064-.526.229-.724s.403-.33.678-.355L7.11 3a.995.995 0 0 1 .687.256c.17.154.288.366.323.608.142 1.072.408 2.117.757 3.025.081.216.08.447.01.658a1.049 1.049 0 0 1-.242.395L7.383 9.203a1.001 1.001 0 0 0-.162 1.201c1.584 2.785 3.839 4.957 6.381 6.378.397.222.882.144 1.195-.166l1.27-1.27a.984.984 0 0 1 .598-.279c.152-.015.31.005.459.06 1.022.381 2.07.636 3.034.754a.976.976 0 0 1 .615.355c.147.181.231.412.226.682z"/>
    </symbol>
    <symbol id="shopping-cart" viewBox="0 0 24 24">
      <path d="M11 21c0-.552-.225-1.053-.586-1.414a1.996 1.996 0 0 0-2.828 0 1.996 1.996 0 0 0 0 2.828 1.996 1.996 0 0 0 2.828 0c.361-.361.586-.862.586-1.414zm11 0c0-.552-.225-1.053-.586-1.414a1.996 1.996 0 0 0-2.828 0 1.996 1.996 0 0 0 0 2.828 1.996 1.996 0 0 0 2.828 0c.361-.361.586-.862.586-1.414zM7.221 7h14.57l-1.371 7.191A1 1 0 0 1 19.4 15H9.666a1.016 1.016 0 0 1-.626-.203.99.99 0 0 1-.379-.603zM1 2h3.18l.848 4.239C5.136 6.676 5.53 7 6 7h1.221l-.4-2H6a1 1 0 0 0-.971 1.239L6.7 14.586A3.009 3.009 0 0 0 9.694 17H19.4a2.97 2.97 0 0 0 1.995-.727 3.02 3.02 0 0 0 .985-1.683l1.602-8.402A1 1 0 0 0 23 5H6.82L5.98.804A1 1 0 0 0 5 0H1a1 1 0 0 0 0 2z"/>
    </symbol>
    <symbol id="tag" viewBox="0 0 24 24">
      <path d="M21.297 14.117a2.991 2.991 0 0 0 .874-2.115 2.996 2.996 0 0 0-.874-2.12l-8.59-8.59A1 1 0 0 0 12 1H2a1 1 0 0 0-1 1v10c0 .256.098.512.293.708l8.592 8.582c.586.585 1.356.878 2.122.877s1.536-.294 2.12-.879zm-1.414-1.414-7.17 7.17c-.196.196-.45.294-.707.294s-.512-.097-.707-.292L3 11.585V3h8.586l8.297 8.297c.192.193.289.447.289.704s-.097.509-.289.702zM7 8a1 1 0 1 0 0-2 1 1 0 0 0 0 2z"/>
    </symbol>
    <symbol id="facebook" viewBox="0 0 32 32">
      <path d="M19 6h5V0h-5c-3.86 0-7 3.14-7 7v3H8v6h4v16h6V16h5l1-6h-6V7c0-.542.458-1 1-1z"/>
    </symbol>
    <symbol id="instagram" viewBox="0 0 32 32">
      <path d="M16 2.881c4.275 0 4.781.019 6.462.094 1.563.069 2.406.331 2.969.55a4.952 4.952 0 0 1 1.837 1.194 5.015 5.015 0 0 1 1.2 1.838c.219.563.481 1.412.55 2.969.075 1.688.094 2.194.094 6.463s-.019 4.781-.094 6.463c-.069 1.563-.331 2.406-.55 2.969a4.94 4.94 0 0 1-1.194 1.837 5.02 5.02 0 0 1-1.837 1.2c-.563.219-1.413.481-2.969.55-1.688.075-2.194.094-6.463.094s-4.781-.019-6.463-.094c-1.563-.069-2.406-.331-2.969-.55a4.952 4.952 0 0 1-1.838-1.194 5.02 5.02 0 0 1-1.2-1.837c-.219-.563-.481-1.413-.55-2.969-.075-1.688-.094-2.194-.094-6.463s.019-4.781.094-6.463c.069-1.563.331-2.406.55-2.969a4.964 4.964 0 0 1 1.194-1.838 5.015 5.015 0 0 1 1.838-1.2c.563-.219 1.412-.481 2.969-.55 1.681-.075 2.188-.094 6.463-.094zM16 0c-4.344 0-4.887.019-6.594.094-1.7.075-2.869.35-3.881.744-1.056.412-1.95.956-2.837 1.85a7.833 7.833 0 0 0-1.85 2.831C.444 6.538.169 7.7.094 9.4.019 11.113 0 11.656 0 16s.019 4.887.094 6.594c.075 1.7.35 2.869.744 3.881.413 1.056.956 1.95 1.85 2.837a7.82 7.82 0 0 0 2.831 1.844c1.019.394 2.181.669 3.881.744 1.706.075 2.25.094 6.594.094s4.888-.019 6.594-.094c1.7-.075 2.869-.35 3.881-.744 1.05-.406 1.944-.956 2.831-1.844s1.438-1.781 1.844-2.831c.394-1.019.669-2.181.744-3.881.075-1.706.094-2.25.094-6.594s-.019-4.887-.094-6.594c-.075-1.7-.35-2.869-.744-3.881a7.506 7.506 0 0 0-1.831-2.844A7.82 7.82 0 0 0 26.482.843C25.463.449 24.301.174 22.601.099c-1.712-.081-2.256-.1-6.6-.1z"/>
      <path d="M16 7.781c-4.537 0-8.219 3.681-8.219 8.219s3.681 8.219 8.219 8.219 8.219-3.681 8.219-8.219A8.221 8.221 0 0 0 16 7.781zm0 13.55a5.331 5.331 0 1 1 0-10.663 5.331 5.331 0 0 1 0 10.663zM26.462 7.456a1.919 1.919 0 1 1-3.838 0 1.919 1.919 0 0 1 3.838 0z"/>
    </symbol>
    <symbol id="twitter" viewBox="0 0 32 32">
      <path d="M32 7.075a12.941 12.941 0 0 1-3.769 1.031 6.601 6.601 0 0 0 2.887-3.631 13.21 13.21 0 0 1-4.169 1.594A6.565 6.565 0 0 0 22.155 4a6.563 6.563 0 0 0-6.563 6.563c0 .512.056 1.012.169 1.494A18.635 18.635 0 0 1 2.23 5.195a6.56 6.56 0 0 0-.887 3.3 6.557 6.557 0 0 0 2.919 5.463 6.565 6.565 0 0 1-2.975-.819v.081a6.565 6.565 0 0 0 5.269 6.437 6.574 6.574 0 0 1-2.968.112 6.588 6.588 0 0 0 6.131 4.563 13.17 13.17 0 0 1-9.725 2.719 18.568 18.568 0 0 0 10.069 2.95c12.075 0 18.681-10.006 18.681-18.681 0-.287-.006-.569-.019-.85A13.216 13.216 0 0 0 32 7.076z"/>
    </symbol>
    <symbol id="github" viewBox="0 0 32 32">
      <path d="M16 .395c-8.836 0-16 7.163-16 16 0 7.069 4.585 13.067 10.942 15.182.8.148 1.094-.347 1.094-.77 0-.381-.015-1.642-.022-2.979-4.452.968-5.391-1.888-5.391-1.888-.728-1.849-1.776-2.341-1.776-2.341-1.452-.993.11-.973.11-.973 1.606.113 2.452 1.649 2.452 1.649 1.427 2.446 3.743 1.739 4.656 1.33.143-1.034.558-1.74 1.016-2.14-3.554-.404-7.29-1.777-7.29-7.907 0-1.747.625-3.174 1.649-4.295-.166-.403-.714-2.03.155-4.234 0 0 1.344-.43 4.401 1.64a15.353 15.353 0 0 1 4.005-.539c1.359.006 2.729.184 4.008.539 3.054-2.07 4.395-1.64 4.395-1.64.871 2.204.323 3.831.157 4.234 1.026 1.12 1.647 2.548 1.647 4.295 0 6.145-3.743 7.498-7.306 7.895.574.497 1.085 1.47 1.085 2.963 0 2.141-.019 3.864-.019 4.391 0 .426.288.925 1.099.768C27.421 29.457 32 23.462 32 16.395c0-8.837-7.164-16-16-16z"/>
    </symbol>
  </defs>
</svg>
