<svg width="230" height="55" fill="none" xmlns="http://www.w3.org/2000/svg"><g clip-path="url(#a)" fill="#fff"><path d="M47.67.804a1.375 1.375 0 0 0-1.024-.141 1.351 1.351 0 0 0-.826.609L36.15 17.363c-.05.084-.09.172-.12.264a10.743 10.743 0 0 0-2.99 1.669c-2.93-4.89-8.3-7.968-14.166-7.968-9.051 0-16.413 7.22-16.439 16.104H.301l.19 1.492c1.11 8.673 6.557 16.249 14.388 20.238v5.12h20.205c2.561 0 4.645-2.048 4.645-4.564v-.556c7.833-3.99 13.277-11.566 14.39-20.238l.19-1.493h-3.852c-.018-4.535-2.979-8.39-7.097-9.845L55.426 6.182a1.308 1.308 0 0 0 .036-1.874 1.35 1.35 0 0 0-.946-.407 1.37 1.37 0 0 0-.962.37l-13.44 12.705c-.121-.005-.241-.018-.364-.018-.078 0-.152.011-.228.012l8.624-14.35a1.309 1.309 0 0 0-.477-1.816ZM18.871 13.98c5.168 0 9.878 2.857 12.22 7.334a10.403 10.403 0 0 0-1.779 3.857c-1.074-4.695-5.343-8.214-10.44-8.214-5.888 0-10.677 4.695-10.703 10.474H5.135c.025-7.42 6.176-13.45 13.737-13.45Zm0 8.614c-2.726 0-4.944 2.166-4.97 4.837h-3.03c.025-4.316 3.602-7.82 8-7.82 4.4 0 7.98 3.504 8.004 7.82H23.84c-.024-2.67-2.242-4.837-4.969-4.837Zm2.266 4.838h-4.531a2.212 2.212 0 0 1 .68-1.547 2.293 2.293 0 0 1 3.173 0c.423.409.667.964.678 1.547Zm30.06 2.652c-1.502 7.709-6.824 14.28-14.2 17.428h-4.324v2.654h4.294a1.904 1.904 0 0 1-.683 1.052c-.342.266-.764.41-1.2.412H17.58v-1.465h5.064v-2.653h-5.031c-7.377-3.146-12.7-9.719-14.202-17.428h47.786Zm-13.713-2.652a2.211 2.211 0 0 1 .679-1.546 2.292 2.292 0 0 1 3.174-.002c.424.409.668.965.68 1.548h-4.533Zm2.265-7.821c4.401 0 7.983 3.504 8.007 7.82H44.72c-.025-2.67-2.244-4.837-4.971-4.837-2.726 0-4.943 2.167-4.967 4.838h-3.034c.025-4.317 3.602-7.821 8.001-7.821Z"/><path d="M39.174 42.914c.216 0 .435-.05.636-.157a13.417 13.417 0 0 0 4.25-3.509 13.138 13.138 0 0 0 2.448-4.894 1.303 1.303 0 0 0-.147-1.007 1.333 1.333 0 0 0-.83-.608 1.373 1.373 0 0 0-1.024.147 1.342 1.342 0 0 0-.617.817 10.497 10.497 0 0 1-1.956 3.912 10.719 10.719 0 0 1-3.396 2.805 1.335 1.335 0 0 0-.598.631c-.123.27-.15.573-.076.86.073.287.241.541.479.723.237.182.53.28.831.28ZM35.906 45.006c.884 0 1.601-.704 1.601-1.572 0-.869-.717-1.573-1.601-1.573s-1.601.704-1.601 1.573c0 .868.717 1.572 1.6 1.572Z"/></g><path d="M83.914 16.902c2.396 0 4.138.392 5.227 1.176 1.09.763 1.634 1.797 1.634 3.104 0 1.133-.36 2.156-1.078 3.071-.697.915-1.655 1.688-2.875 2.32-1.22.61-2.603 1.034-4.15 1.274 2.31.174 3.997.74 5.065 1.699 1.089.958 1.633 2.101 1.633 3.43 0 1.176-.283 2.2-.85 3.07-.544.872-1.295 1.602-2.254 2.19-.936.588-2.036 1.034-3.3 1.34a18.337 18.337 0 0 1-4.018.424c-.74 0-1.557-.01-2.45-.033a66.68 66.68 0 0 0-3.234-.065c-.545 0-1.11.01-1.699.033-.588 0-1.143.01-1.666.032-.523 0-.97.011-1.34.033l.131-.653c.74-.044 1.318-.131 1.732-.262.413-.13.74-.392.98-.784s.457-.98.653-1.764l4.313-16.204c.152-.654.24-1.176.26-1.568.023-.414-.13-.72-.457-.915-.304-.218-.882-.327-1.731-.327l.163-.653c.37.021.806.043 1.307.065.523 0 1.078.01 1.666.033h1.634c.936 0 1.764-.011 2.483-.033a75.49 75.49 0 0 1 2.221-.033Zm-6.109 11.37.13-.556h2.418c1.242 0 2.298-.316 3.17-.947a6.148 6.148 0 0 0 2.025-2.549 7.83 7.83 0 0 0 .718-3.3c0-1.088-.217-1.927-.653-2.515-.414-.588-1.143-.882-2.189-.882-.762 0-1.307.152-1.633.457-.327.284-.61.904-.85 1.863l-4.41 16.694c-.13.544-.218 1.024-.262 1.438-.021.413.088.73.327.947.24.218.686.327 1.34.327 1.546 0 2.81-.294 3.79-.883a5.466 5.466 0 0 0 2.188-2.417c.48-1.045.719-2.222.719-3.528 0-.806-.142-1.514-.425-2.124a3 3 0 0 0-1.274-1.47c-.588-.37-1.372-.556-2.352-.556h-2.777ZM97.01 17.523c.065-.806.392-1.448.98-1.928a3.16 3.16 0 0 1 2.058-.718c.719 0 1.263.207 1.634.62.392.393.555.904.49 1.536-.066.74-.392 1.361-.98 1.862a3.08 3.08 0 0 1-2.059.752c-.718 0-1.274-.196-1.666-.588-.37-.414-.523-.926-.457-1.536Zm-1.144 8.396c.392-1.176.262-1.764-.392-1.764-.435 0-.827.229-1.176.686-.348.436-.719 1.144-1.11 2.124l-.556 1.535h-.62l.849-2.45c.326-.871.718-1.547 1.176-2.026.457-.5.969-.849 1.535-1.045a5.075 5.075 0 0 1 1.666-.294c.763 0 1.34.142 1.732.425.392.283.653.653.784 1.11.13.458.163.959.098 1.503a7.495 7.495 0 0 1-.36 1.536l-3.462 9.964c-.196.588-.25 1.035-.164 1.34.088.283.294.424.621.424.349 0 .697-.185 1.046-.555.37-.392.762-1.144 1.176-2.254l.555-1.47h.62l-.816 2.384c-.327.872-.719 1.558-1.176 2.059-.457.479-.958.816-1.503 1.012a4.709 4.709 0 0 1-1.6.294c-.96 0-1.656-.206-2.092-.62-.435-.436-.653-1.024-.653-1.765 0-.762.174-1.633.523-2.613l3.3-9.54Zm7.422 13.591c.174.087.359.163.555.229.196.043.468.065.817.065.828 0 1.514-.261 2.058-.784.566-.545.85-1.296.85-2.254 0-.697-.153-1.405-.458-2.124-.283-.719-.719-1.514-1.307-2.385a38.643 38.643 0 0 1-1.437-2.254c-.414-.74-.621-1.59-.621-2.548 0-.937.229-1.754.686-2.45.458-.72 1.111-1.285 1.96-1.7.85-.413 1.841-.62 2.973-.62.741 0 1.471.087 2.189.261.719.174 1.307.49 1.764.948.458.457.686 1.121.686 1.993 0 .305-.065.631-.196.98a2.28 2.28 0 0 1-.588.85c-.261.239-.609.359-1.045.359-.457 0-.839-.175-1.143-.523-.305-.37-.458-.839-.458-1.405 0-.501.087-.97.262-1.405.196-.435.424-.817.686-1.143-.305-.175-.741-.262-1.307-.262-.784 0-1.416.25-1.895.752-.479.5-.719 1.209-.719 2.123 0 .48.076.937.229 1.372.174.414.403.85.686 1.307.305.436.642.948 1.013 1.536.61.98 1.089 1.862 1.437 2.646.349.762.523 1.546.523 2.352 0 .959-.261 1.819-.784 2.581-.501.762-1.198 1.361-2.091 1.797-.893.436-1.938.653-3.136.653a8.34 8.34 0 0 1-2.451-.359c-.762-.218-1.394-.588-1.894-1.11-.48-.523-.719-1.242-.719-2.157 0-.5.141-.958.424-1.372.262-.436.676-.654 1.242-.654s.991.23 1.274.687c.283.457.425 1.023.425 1.698 0 .48-.066.926-.196 1.34a21.02 21.02 0 0 1-.294.98Zm23.489-16.368-.098.654h-10.945l.164-.654h10.879Zm-7.939 14.081c-.174.61-.152 1.056.065 1.34.24.283.556.424.948.424.457 0 .915-.218 1.372-.653.479-.436.915-1.198 1.307-2.287l.49-1.34h.621l-.654 1.96c-.457 1.351-1.089 2.32-1.895 2.908-.806.588-1.764.882-2.875.882-.98 0-1.731-.217-2.254-.653-.501-.436-.806-1.024-.915-1.764-.087-.762.011-1.623.294-2.581l4.934-17.217a32.046 32.046 0 0 0 2.188-.13 13.143 13.143 0 0 0 1.961-.328l-5.587 19.44ZM129.633 40h-4.019l3.921-14.08c.196-.654.261-1.112.196-1.373-.066-.261-.262-.392-.588-.392-.414 0-.795.207-1.144.62-.348.415-.708 1.144-1.078 2.19l-.555 1.535h-.621l.849-2.45c.305-.871.686-1.547 1.144-2.026.457-.5.958-.849 1.503-1.045a4.883 4.883 0 0 1 1.666-.294c.697 0 1.209.142 1.535.425.349.283.567.653.654 1.11.109.458.13.959.065 1.503a9.16 9.16 0 0 1-.261 1.536L129.633 40Zm8.363-16.564c-.479 0-.969.174-1.47.523-.501.327-1.024.86-1.568 1.6-.545.741-1.1 1.721-1.666 2.941-.545 1.198-1.111 2.668-1.699 4.41-.588 1.721-1.176 3.758-1.764 6.11l.784-4.345c.675-2.287 1.307-4.193 1.895-5.717.609-1.547 1.198-2.777 1.764-3.692.588-.937 1.209-1.601 1.862-1.993a4.052 4.052 0 0 1 2.124-.588c.784 0 1.383.229 1.796.686.436.457.654 1.024.654 1.699 0 .544-.131 1.056-.392 1.535a3.2 3.2 0 0 1-1.046 1.111c-.413.261-.893.392-1.437.392-.545 0-.98-.141-1.307-.425-.305-.283-.457-.697-.457-1.241 0-.48.109-.915.326-1.307.218-.392.501-.719.85-.98.348-.283.729-.48 1.143-.588a.407.407 0 0 0-.163-.098.724.724 0 0 0-.229-.033Zm11.376-.098c-.566 0-1.143.294-1.731.882-.588.567-1.144 1.35-1.666 2.353-.523.98-1.002 2.08-1.438 3.3a26.878 26.878 0 0 0-.98 3.789 20.113 20.113 0 0 0-.359 3.692c0 .87.108 1.503.326 1.895.24.37.588.555 1.046.555.544 0 1.11-.283 1.699-.85.588-.566 1.143-1.328 1.666-2.286.544-.98 1.023-2.07 1.437-3.267.414-1.22.741-2.483.98-3.79.24-1.307.36-2.581.36-3.823 0-.914-.12-1.546-.36-1.894-.218-.37-.544-.556-.98-.556Zm-10.029 11.827c0-.98.13-2.037.392-3.17a16.27 16.27 0 0 1 1.241-3.332 13.011 13.011 0 0 1 2.026-3.005 9.23 9.23 0 0 1 2.875-2.156c1.089-.545 2.319-.817 3.691-.817 1.568 0 2.788.446 3.659 1.34.893.87 1.34 2.188 1.34 3.952 0 .98-.142 2.037-.425 3.17a15.563 15.563 0 0 1-1.209 3.364 13.355 13.355 0 0 1-2.058 3.006 9.538 9.538 0 0 1-2.842 2.156c-1.089.523-2.32.784-3.692.784-1.568 0-2.799-.446-3.692-1.34-.871-.892-1.306-2.21-1.306-3.952Zm37.963-18.263c2.396 0 4.138.392 5.227 1.176 1.089.763 1.633 1.797 1.633 3.104 0 1.133-.359 2.156-1.078 3.071-.697.915-1.655 1.688-2.875 2.32-1.219.61-2.602 1.034-4.149 1.274 2.309.174 3.997.74 5.064 1.699 1.089.958 1.634 2.101 1.634 3.43 0 1.176-.284 2.2-.85 3.07-.544.872-1.296 1.602-2.254 2.19-.937.588-2.036 1.034-3.3 1.34a18.33 18.33 0 0 1-4.018.424c-.741 0-1.557-.01-2.45-.033a66.733 66.733 0 0 0-3.235-.065c-.544 0-1.11.01-1.699.033-.588 0-1.143.01-1.666.032-.522 0-.969.011-1.339.033l.13-.653c.741-.044 1.318-.131 1.732-.262.414-.13.741-.392.98-.784.24-.392.457-.98.654-1.764l4.312-16.204c.152-.654.24-1.176.261-1.568.022-.414-.13-.72-.457-.915-.305-.218-.882-.327-1.732-.327l.164-.653c.37.021.806.043 1.307.065.522 0 1.078.01 1.666.033h1.633c.937 0 1.764-.011 2.483-.033a75.522 75.522 0 0 1 2.222-.033Zm-6.11 11.37.131-.556h2.418c1.241 0 2.297-.316 3.169-.947a6.143 6.143 0 0 0 2.025-2.549 7.831 7.831 0 0 0 .719-3.3c0-1.088-.218-1.927-.653-2.515-.414-.588-1.144-.882-2.189-.882-.763 0-1.307.152-1.634.457-.327.284-.61.904-.849 1.863l-4.411 16.694c-.13.544-.218 1.024-.261 1.438-.022.413.087.73.327.947.239.218.686.327 1.339.327 1.546 0 2.81-.294 3.79-.883a5.466 5.466 0 0 0 2.189-2.417c.479-1.045.718-2.222.718-3.528 0-.806-.141-1.514-.424-2.124a3.002 3.002 0 0 0-1.274-1.47c-.588-.37-1.373-.556-2.353-.556h-2.777Zm17.506 8.951c-.174.588-.217 1.035-.13 1.34.109.283.326.424.653.424.305 0 .632-.185.98-.555.37-.392.763-1.144 1.176-2.254l.523-1.47h.621l-.817 2.384c-.305.872-.686 1.558-1.143 2.059-.458.479-.948.816-1.471 1.012a4.52 4.52 0 0 1-1.6.294c-.697 0-1.253-.13-1.667-.392a1.984 1.984 0 0 1-.849-1.078c-.152-.457-.207-.98-.163-1.568a8.63 8.63 0 0 1 .392-1.96l5.194-17.25c.218-.74.196-1.285-.065-1.633-.261-.349-.926-.523-1.993-.523l.229-.686c1.415-.022 2.679-.142 3.789-.36a19.49 19.49 0 0 0 3.202-.98l-6.861 23.196Zm10.871-19.7c.065-.806.392-1.448.98-1.928a3.16 3.16 0 0 1 2.058-.718c.719 0 1.263.207 1.633.62.392.393.556.904.49 1.536-.065.74-.392 1.361-.98 1.862-.588.501-1.274.752-2.058.752-.719 0-1.274-.196-1.666-.588-.37-.414-.523-.926-.457-1.536Zm-1.144 8.396c.392-1.176.261-1.764-.392-1.764-.436 0-.828.229-1.176.686-.349.436-.719 1.144-1.111 2.124l-.555 1.535h-.621l.849-2.45c.327-.871.719-1.547 1.177-2.026.457-.5.969-.849 1.535-1.045a5.075 5.075 0 0 1 1.666-.294c.763 0 1.34.142 1.732.425.392.283.653.653.784 1.11.13.458.163.959.098 1.503a7.484 7.484 0 0 1-.36 1.536l-3.463 9.964c-.196.588-.25 1.035-.163 1.34.087.283.294.424.621.424.348 0 .697-.185 1.045-.555.371-.392.763-1.144 1.176-2.254l.556-1.47h.62l-.816 2.384c-.327.872-.719 1.558-1.176 2.059-.458.479-.959.816-1.503 1.012a4.71 4.71 0 0 1-1.601.294c-.958 0-1.655-.206-2.091-.62-.436-.436-.653-1.024-.653-1.765 0-.762.174-1.633.522-2.613l3.3-9.54Zm7.421 13.591c.175.087.36.163.556.229.196.043.468.065.817.065.827 0 1.513-.261 2.058-.784.566-.545.849-1.296.849-2.254 0-.697-.152-1.405-.457-2.124-.283-.719-.719-1.514-1.307-2.385a38.121 38.121 0 0 1-1.437-2.254c-.414-.74-.621-1.59-.621-2.548 0-.937.229-1.754.686-2.45.457-.72 1.111-1.285 1.96-1.7.85-.413 1.841-.62 2.973-.62.741 0 1.47.087 2.189.261.719.174 1.307.49 1.764.948.458.457.686 1.121.686 1.993 0 .305-.065.631-.196.98a2.28 2.28 0 0 1-.588.85c-.261.239-.61.359-1.045.359-.458 0-.839-.175-1.144-.523-.305-.37-.457-.839-.457-1.405 0-.501.087-.97.261-1.405.196-.435.425-.817.686-1.143-.305-.175-.74-.262-1.306-.262-.785 0-1.416.25-1.895.752-.48.5-.719 1.209-.719 2.123 0 .48.076.937.229 1.372.174.414.403.85.686 1.307.305.436.642.948 1.012 1.536.61.98 1.089 1.862 1.438 2.646.348.762.523 1.546.523 2.352 0 .959-.262 1.819-.784 2.581-.501.762-1.198 1.361-2.091 1.797-.893.436-1.939.653-3.137.653-.849 0-1.666-.12-2.45-.359-.762-.218-1.394-.588-1.895-1.11-.479-.523-.718-1.242-.718-2.157 0-.5.141-.958.424-1.372.262-.436.675-.654 1.242-.654.566 0 .991.23 1.274.687.283.457.425 1.023.425 1.698 0 .48-.066.926-.197 1.34a18.83 18.83 0 0 1-.294.98Zm12.905 0c.174.087.359.163.555.229.196.043.468.065.817.065.827 0 1.513-.261 2.058-.784.566-.545.849-1.296.849-2.254 0-.697-.152-1.405-.457-2.124-.283-.719-.719-1.514-1.307-2.385a38.121 38.121 0 0 1-1.437-2.254c-.414-.74-.621-1.59-.621-2.548 0-.937.229-1.754.686-2.45.457-.72 1.111-1.285 1.96-1.7.85-.413 1.841-.62 2.973-.62.741 0 1.47.087 2.189.261.719.174 1.307.49 1.764.948.458.457.686 1.121.686 1.993 0 .305-.065.631-.196.98a2.28 2.28 0 0 1-.588.85c-.261.239-.61.359-1.045.359-.458 0-.839-.175-1.144-.523-.305-.37-.457-.839-.457-1.405 0-.501.087-.97.261-1.405.196-.435.425-.817.686-1.143-.305-.175-.74-.262-1.306-.262-.784 0-1.416.25-1.895.752-.479.5-.719 1.209-.719 2.123 0 .48.076.937.229 1.372.174.414.403.85.686 1.307.305.436.642.948 1.013 1.536.609.98 1.089 1.862 1.437 2.646.348.762.523 1.546.523 2.352 0 .959-.262 1.819-.784 2.581-.501.762-1.198 1.361-2.091 1.797-.893.436-1.939.653-3.137.653-.849 0-1.666-.12-2.45-.359-.762-.218-1.394-.588-1.895-1.11-.479-.523-.718-1.242-.718-2.157 0-.5.141-.958.424-1.372.262-.436.675-.654 1.242-.654.566 0 .991.23 1.274.687.283.457.425 1.023.425 1.698 0 .48-.066.926-.196 1.34a21.02 21.02 0 0 1-.294.98Z" fill="#fff"/><defs><clipPath id="a"><path fill="#fff" d="M0 0h56v55H0z"/></clipPath></defs></svg>