<svg width="281" height="55" fill="none" xmlns="http://www.w3.org/2000/svg"><g clip-path="url(#a)"><path d="M48.17.804a1.375 1.375 0 0 0-1.024-.141 1.351 1.351 0 0 0-.826.609L36.65 17.363c-.05.084-.09.172-.12.264a10.743 10.743 0 0 0-2.99 1.669c-2.93-4.89-8.3-7.968-14.166-7.968-9.051 0-16.413 7.22-16.439 16.104H.801l.19 1.492c1.11 8.673 6.557 16.249 14.388 20.238v5.12h20.205c2.561 0 4.645-2.048 4.645-4.564v-.556c7.833-3.99 13.277-11.566 14.39-20.238l.19-1.493h-3.852c-.018-4.535-2.979-8.39-7.097-9.845L55.926 6.182a1.308 1.308 0 0 0 .036-1.874 1.35 1.35 0 0 0-.946-.407 1.37 1.37 0 0 0-.962.37l-13.44 12.705c-.121-.005-.241-.018-.364-.018-.078 0-.152.011-.228.012l8.624-14.35a1.309 1.309 0 0 0-.477-1.816ZM19.371 13.98c5.168 0 9.878 2.857 12.22 7.334a10.403 10.403 0 0 0-1.779 3.857c-1.074-4.695-5.343-8.214-10.44-8.214-5.888 0-10.677 4.695-10.703 10.474H5.635c.025-7.42 6.176-13.45 13.737-13.45Zm0 8.614c-2.726 0-4.944 2.166-4.97 4.837h-3.03c.025-4.316 3.602-7.82 8-7.82 4.4 0 7.98 3.504 8.003 7.82h-3.034c-.024-2.67-2.242-4.837-4.969-4.837Zm2.266 4.838h-4.531a2.212 2.212 0 0 1 .68-1.547 2.293 2.293 0 0 1 3.173 0c.423.409.667.964.678 1.547Zm30.06 2.652c-1.502 7.709-6.824 14.28-14.2 17.428h-4.324v2.654h4.294a1.904 1.904 0 0 1-.683 1.052c-.342.266-.764.41-1.2.412H18.08v-1.464h5.064v-2.654h-5.031c-7.377-3.146-12.7-9.719-14.202-17.428h47.786Zm-13.713-2.652a2.211 2.211 0 0 1 .679-1.546 2.292 2.292 0 0 1 3.174-.002c.424.409.668.965.68 1.548h-4.533Zm2.265-7.821c4.401 0 7.983 3.504 8.007 7.82H45.22c-.025-2.67-2.244-4.837-4.971-4.837-2.726 0-4.943 2.167-4.967 4.838h-3.034c.025-4.317 3.602-7.821 8.001-7.821Z" fill="#AD343E"/><path d="M39.674 42.914c.216 0 .435-.05.636-.157a13.417 13.417 0 0 0 4.25-3.509 13.138 13.138 0 0 0 2.448-4.894 1.303 1.303 0 0 0-.147-1.007 1.333 1.333 0 0 0-.83-.608 1.373 1.373 0 0 0-1.024.147 1.342 1.342 0 0 0-.617.817 10.497 10.497 0 0 1-1.956 3.912 10.719 10.719 0 0 1-3.396 2.805 1.335 1.335 0 0 0-.598.631c-.123.27-.15.573-.076.86.073.287.241.541.479.723.237.182.53.28.831.28ZM36.406 45.006c.884 0 1.601-.704 1.601-1.572 0-.869-.717-1.573-1.601-1.573s-1.601.704-1.601 1.573c0 .868.717 1.572 1.6 1.572Z" fill="#474747"/></g><path d="M88.723 13.835c3.129 0 5.404.512 6.826 1.536 1.423.995 2.134 2.346 2.134 4.053 0 1.48-.47 2.816-1.408 4.01-.91 1.195-2.162 2.205-3.755 3.03-1.593.796-3.399 1.351-5.418 1.664 3.015.228 5.22.967 6.613 2.219 1.422 1.251 2.133 2.745 2.133 4.48 0 1.536-.37 2.873-1.11 4.01-.71 1.138-1.692 2.091-2.943 2.859-1.223.768-2.66 1.351-4.31 1.75-1.65.37-3.399.554-5.248.554-.967 0-2.033-.014-3.2-.043a86.966 86.966 0 0 0-4.224-.085c-.71 0-1.45.014-2.218.043-.768 0-1.493.014-2.176.042-.683 0-1.266.015-1.75.043l.171-.853c.967-.057 1.721-.171 2.261-.342.54-.17.968-.512 1.28-1.024.313-.512.598-1.28.854-2.304l5.632-21.162c.199-.854.313-1.536.341-2.048.029-.54-.17-.939-.597-1.195-.398-.284-1.152-.427-2.261-.427l.213-.853c.483.028 1.052.057 1.706.085.683 0 1.408.015 2.176.043h2.134c1.223 0 2.304-.014 3.243-.043a98.835 98.835 0 0 1 2.9-.042Zm-7.979 14.848.17-.726h3.158c1.621 0 3.001-.412 4.139-1.237 1.166-.853 2.048-1.963 2.645-3.328.626-1.365.939-2.802.939-4.31 0-1.422-.285-2.517-.853-3.285-.54-.768-1.494-1.152-2.86-1.152-.995 0-1.706.2-2.132.598-.427.37-.797 1.18-1.11 2.432l-5.76 21.802c-.17.711-.284 1.337-.341 1.878-.029.54.114.953.426 1.237.313.284.896.427 1.75.427 2.02 0 3.67-.384 4.95-1.152a7.138 7.138 0 0 0 2.858-3.158c.626-1.365.939-2.901.939-4.608 0-1.052-.185-1.977-.555-2.773a3.917 3.917 0 0 0-1.664-1.92c-.768-.484-1.792-.725-3.072-.725h-3.627Zm25.204-14.038c.085-1.052.512-1.891 1.28-2.517.768-.626 1.664-.939 2.688-.939.938 0 1.65.27 2.133.811.512.512.725 1.18.64 2.005-.085.967-.512 1.778-1.28 2.432a4.018 4.018 0 0 1-2.688.982c-.939 0-1.664-.256-2.176-.768-.483-.54-.683-1.21-.597-2.006Zm-1.494 10.966c.512-1.536.342-2.304-.512-2.304-.568 0-1.08.298-1.536.896-.455.569-.938 1.493-1.45 2.773l-.726 2.005h-.81l1.109-3.2c.427-1.137.939-2.02 1.536-2.645.597-.654 1.266-1.11 2.005-1.365a6.63 6.63 0 0 1 2.176-.384c.996 0 1.75.185 2.262.554.512.37.853.854 1.024 1.451.17.597.213 1.252.128 1.963a9.797 9.797 0 0 1-.47 2.005l-4.522 13.013c-.256.768-.327 1.351-.214 1.75.114.37.384.554.811.554.455 0 .91-.241 1.365-.725.484-.512.996-1.493 1.536-2.944l.726-1.92h.81l-1.066 3.115c-.427 1.137-.939 2.033-1.536 2.688-.598.625-1.252 1.066-1.963 1.322a6.148 6.148 0 0 1-2.091.384c-1.251 0-2.161-.27-2.73-.81-.57-.57-.853-1.337-.853-2.304 0-.996.227-2.134.682-3.414l4.309-12.458Zm9.815 17.749c.228.114.469.213.725.299.256.057.612.085 1.067.085 1.081 0 1.977-.341 2.688-1.024.74-.711 1.109-1.692 1.109-2.944 0-.91-.199-1.835-.597-2.773-.37-.939-.939-1.977-1.707-3.115a50.816 50.816 0 0 1-1.877-2.944c-.54-.967-.811-2.076-.811-3.328 0-1.223.299-2.29.896-3.2.598-.939 1.451-1.678 2.56-2.219 1.11-.54 2.404-.81 3.883-.81.967 0 1.92.113 2.859.341.938.228 1.706.64 2.304 1.237.597.598.896 1.465.896 2.603 0 .398-.086.825-.256 1.28a3.005 3.005 0 0 1-.768 1.11c-.342.312-.797.469-1.366.469a1.902 1.902 0 0 1-1.493-.683c-.398-.484-.597-1.095-.597-1.835 0-.654.114-1.265.341-1.834a6.942 6.942 0 0 1 .896-1.494c-.398-.227-.967-.341-1.707-.341-1.024 0-1.848.327-2.474.981-.626.655-.939 1.579-.939 2.774 0 .625.1 1.223.299 1.792.227.54.526 1.109.896 1.706.398.57.839 1.238 1.322 2.006.797 1.28 1.423 2.432 1.878 3.456.455.995.682 2.02.682 3.072 0 1.251-.341 2.375-1.024 3.37-.654.996-1.564 1.778-2.73 2.347s-2.532.853-4.096.853c-1.11 0-2.176-.156-3.2-.469-.996-.284-1.821-.768-2.475-1.45-.626-.683-.939-1.622-.939-2.817 0-.654.185-1.251.555-1.792.341-.569.882-.853 1.621-.853.74 0 1.295.299 1.664.896.37.597.555 1.337.555 2.219a5.77 5.77 0 0 1-.256 1.749c-.142.512-.27.939-.384 1.28Zm30.799-21.376-.128.853h-14.293l.213-.853h14.208ZM134.7 40.374c-.227.796-.199 1.379.085 1.749.313.37.726.554 1.238.554.597 0 1.194-.284 1.792-.853.626-.569 1.194-1.564 1.706-2.987l.64-1.749h.811l-.853 2.56c-.598 1.764-1.422 3.03-2.475 3.797-1.052.768-2.304 1.152-3.755 1.152-1.28 0-2.261-.284-2.944-.853-.654-.569-1.052-1.337-1.194-2.304-.114-.996.014-2.12.384-3.37l6.442-22.486a41.791 41.791 0 0 0 2.859-.17c.91-.086 1.764-.228 2.56-.427L134.7 40.373ZM148.92 44h-5.248l5.12-18.39c.256-.853.341-1.45.256-1.791-.085-.342-.341-.512-.768-.512-.54 0-1.038.27-1.493.81-.455.54-.925 1.494-1.408 2.859l-.726 2.005h-.81l1.109-3.2c.398-1.137.896-2.02 1.493-2.645.598-.654 1.252-1.11 1.963-1.365a6.381 6.381 0 0 1 2.176-.384c.91 0 1.579.185 2.005.554.456.37.74.854.854 1.451.142.597.17 1.252.085 1.963a11.894 11.894 0 0 1-.341 2.005L148.92 44Zm10.923-21.632c-.626 0-1.266.228-1.92.683-.654.426-1.337 1.123-2.048 2.09-.711.967-1.437 2.247-2.176 3.84-.711 1.565-1.451 3.485-2.219 5.76-.768 2.247-1.536 4.907-2.304 7.979l1.024-5.675c.882-2.986 1.707-5.475 2.475-7.466.796-2.02 1.564-3.627 2.304-4.822.768-1.223 1.578-2.09 2.432-2.602a5.294 5.294 0 0 1 2.773-.768c1.024 0 1.806.298 2.347.896.569.597.853 1.337.853 2.218 0 .711-.171 1.38-.512 2.006a4.167 4.167 0 0 1-1.365 1.45c-.541.342-1.166.512-1.878.512-.711 0-1.28-.185-1.706-.554-.398-.37-.598-.91-.598-1.622 0-.625.143-1.194.427-1.706a4.024 4.024 0 0 1 1.109-1.28c.456-.37.953-.626 1.494-.768a.534.534 0 0 0-.214-.128.937.937 0 0 0-.298-.043Zm14.979-.128c-.739 0-1.493.384-2.261 1.152-.768.74-1.494 1.764-2.176 3.072-.683 1.28-1.309 2.716-1.878 4.31a35.135 35.135 0 0 0-1.28 4.949 26.393 26.393 0 0 0-.469 4.821c0 1.138.142 1.963.427 2.475.313.483.768.725 1.365.725.711 0 1.451-.37 2.219-1.11.768-.739 1.493-1.734 2.176-2.986a26.743 26.743 0 0 0 1.877-4.267 34.997 34.997 0 0 0 1.28-4.949c.313-1.707.469-3.37.469-4.992 0-1.195-.156-2.02-.469-2.475-.284-.483-.711-.725-1.28-.725Zm-13.099 15.445c0-1.28.171-2.66.512-4.138.37-1.48.911-2.93 1.622-4.352a16.99 16.99 0 0 1 2.645-3.926 12.072 12.072 0 0 1 3.755-2.816c1.422-.71 3.029-1.066 4.821-1.066 2.048 0 3.641.583 4.779 1.749 1.166 1.138 1.749 2.859 1.749 5.163 0 1.28-.185 2.66-.555 4.138a20.373 20.373 0 0 1-1.578 4.395 17.47 17.47 0 0 1-2.688 3.925 12.465 12.465 0 0 1-3.712 2.816c-1.422.683-3.03 1.024-4.822 1.024-2.048 0-3.655-.583-4.821-1.749-1.138-1.166-1.707-2.887-1.707-5.163Zm49.825-23.85c3.129 0 5.404.512 6.827 1.536 1.422.995 2.133 2.346 2.133 4.053 0 1.48-.469 2.816-1.408 4.01-.91 1.195-2.162 2.205-3.755 3.03-1.593.796-3.399 1.351-5.418 1.664 3.015.228 5.219.967 6.613 2.219 1.422 1.251 2.133 2.745 2.133 4.48 0 1.536-.37 2.873-1.109 4.01-.711 1.138-1.693 2.091-2.944 2.859-1.223.768-2.66 1.351-4.309 1.75-1.65.37-3.4.554-5.248.554-.968 0-2.034-.014-3.2-.043a86.977 86.977 0 0 0-4.224-.085c-.712 0-1.451.014-2.219.043-.768 0-1.493.014-2.176.042-.683 0-1.266.015-1.749.043l.17-.853c.967-.057 1.721-.171 2.262-.342.54-.17.967-.512 1.28-1.024.312-.512.597-1.28.853-2.304l5.632-21.162c.199-.854.313-1.536.341-2.048.029-.54-.17-.939-.597-1.195-.398-.284-1.152-.427-2.261-.427l.213-.853c.483.028 1.052.057 1.707.085.682 0 1.408.015 2.176.043h2.133c1.223 0 2.304-.014 3.243-.043a98.814 98.814 0 0 1 2.901-.042Zm-7.979 14.848.171-.726h3.157c1.622 0 3.001-.412 4.139-1.237 1.166-.853 2.048-1.963 2.645-3.328.626-1.365.939-2.802.939-4.31 0-1.422-.285-2.517-.853-3.285-.541-.768-1.494-1.152-2.859-1.152-.996 0-1.707.2-2.133.598-.427.37-.797 1.18-1.11 2.432l-5.76 21.802c-.17.711-.284 1.337-.341 1.878-.029.54.114.953.427 1.237.312.284.896.427 1.749.427 2.019 0 3.669-.384 4.949-1.152a7.14 7.14 0 0 0 2.859-3.158c.626-1.365.939-2.901.939-4.608 0-1.052-.185-1.977-.555-2.773a3.915 3.915 0 0 0-1.664-1.92c-.768-.484-1.792-.725-3.072-.725h-3.627Zm22.985 11.69c-.227.768-.284 1.351-.17 1.75.142.37.426.554.853.554.398 0 .825-.241 1.28-.725.483-.512.995-1.493 1.536-2.944l.683-1.92h.81l-1.066 3.115c-.399 1.137-.896 2.033-1.494 2.688-.597.625-1.237 1.066-1.92 1.322a5.904 5.904 0 0 1-2.09.384c-.911 0-1.636-.17-2.176-.512a2.589 2.589 0 0 1-1.11-1.408c-.199-.597-.27-1.28-.213-2.048.057-.796.227-1.65.512-2.56l6.784-22.528c.284-.967.256-1.678-.085-2.133-.342-.455-1.209-.683-2.603-.683l.299-.896c1.848-.028 3.498-.185 4.949-.469a25.446 25.446 0 0 0 4.181-1.28l-8.96 30.293Zm14.319-25.728c.085-1.052.512-1.891 1.28-2.517.768-.626 1.664-.939 2.688-.939.938 0 1.65.27 2.133.811.512.512.725 1.18.64 2.005-.085.967-.512 1.778-1.28 2.432a4.018 4.018 0 0 1-2.688.982c-.939 0-1.664-.256-2.176-.768-.483-.54-.683-1.21-.597-2.006Zm-1.494 10.966c.512-1.536.342-2.304-.512-2.304-.568 0-1.08.298-1.536.896-.455.569-.938 1.493-1.45 2.773l-.726 2.005h-.81l1.109-3.2c.427-1.137.939-2.02 1.536-2.645.597-.654 1.266-1.11 2.005-1.365a6.63 6.63 0 0 1 2.176-.384c.996 0 1.75.185 2.262.554.512.37.853.854 1.024 1.451.17.597.213 1.252.128 1.963a9.797 9.797 0 0 1-.47 2.005l-4.522 13.013c-.256.768-.327 1.351-.214 1.75.114.37.384.554.811.554.455 0 .91-.241 1.365-.725.484-.512.996-1.493 1.536-2.944l.726-1.92h.81l-1.066 3.115c-.427 1.137-.939 2.033-1.536 2.688-.598.625-1.252 1.066-1.963 1.322a6.148 6.148 0 0 1-2.091.384c-1.251 0-2.161-.27-2.73-.81-.569-.57-.854-1.337-.854-2.304 0-.996.228-2.134.683-3.414l4.309-12.458Zm9.815 17.749c.228.114.47.213.726.299.256.057.611.085 1.066.085 1.081 0 1.977-.341 2.688-1.024.74-.711 1.11-1.692 1.11-2.944 0-.91-.2-1.835-.598-2.773-.37-.939-.938-1.977-1.706-3.115a50.314 50.314 0 0 1-1.878-2.944c-.54-.967-.81-2.076-.81-3.328 0-1.223.298-2.29.896-3.2.597-.939 1.45-1.678 2.56-2.219 1.109-.54 2.403-.81 3.882-.81.967 0 1.92.113 2.859.341.939.228 1.707.64 2.304 1.237.597.598.896 1.465.896 2.603 0 .398-.085.825-.256 1.28a3.005 3.005 0 0 1-.768 1.11c-.341.312-.797.469-1.365.469a1.903 1.903 0 0 1-1.494-.683c-.398-.484-.597-1.095-.597-1.835 0-.654.114-1.265.341-1.834a6.942 6.942 0 0 1 .896-1.494c-.398-.227-.967-.341-1.706-.341-1.024 0-1.849.327-2.475.981-.626.655-.939 1.579-.939 2.774 0 .625.1 1.223.299 1.792.227.54.526 1.109.896 1.706.398.57.839 1.238 1.323 2.006.796 1.28 1.422 2.432 1.877 3.456.455.995.683 2.02.683 3.072 0 1.251-.342 2.375-1.024 3.37-.655.996-1.565 1.778-2.731 2.347s-2.532.853-4.096.853a10.89 10.89 0 0 1-3.2-.469c-.996-.284-1.821-.768-2.475-1.45-.626-.683-.938-1.622-.938-2.817 0-.654.184-1.251.554-1.792.342-.569.882-.853 1.622-.853.739 0 1.294.299 1.664.896.369.597.554 1.337.554 2.219a5.77 5.77 0 0 1-.256 1.749c-.142.512-.27.939-.384 1.28Zm16.975 0c.228.114.469.213.725.299.256.057.612.085 1.067.085 1.081 0 1.977-.341 2.688-1.024.74-.711 1.109-1.692 1.109-2.944 0-.91-.199-1.835-.597-2.773-.37-.939-.939-1.977-1.707-3.115a50.816 50.816 0 0 1-1.877-2.944c-.54-.967-.811-2.076-.811-3.328 0-1.223.299-2.29.896-3.2.598-.939 1.451-1.678 2.56-2.219 1.11-.54 2.404-.81 3.883-.81.967 0 1.92.113 2.859.341.938.228 1.706.64 2.304 1.237.597.598.896 1.465.896 2.603 0 .398-.086.825-.256 1.28a3.005 3.005 0 0 1-.768 1.11c-.342.312-.797.469-1.366.469a1.902 1.902 0 0 1-1.493-.683c-.398-.484-.597-1.095-.597-1.835 0-.654.114-1.265.341-1.834a6.942 6.942 0 0 1 .896-1.494c-.398-.227-.967-.341-1.707-.341-1.024 0-1.848.327-2.474.981-.626.655-.939 1.579-.939 2.774 0 .625.1 1.223.299 1.792.227.54.526 1.109.896 1.706.398.57.839 1.238 1.322 2.006.797 1.28 1.423 2.432 1.878 3.456.455.995.682 2.02.682 3.072 0 1.251-.341 2.375-1.024 3.37-.654.996-1.564 1.778-2.73 2.347s-2.532.853-4.096.853c-1.11 0-2.176-.156-3.2-.469-.996-.284-1.821-.768-2.475-1.45-.626-.683-.939-1.622-.939-2.817 0-.654.185-1.251.555-1.792.341-.569.882-.853 1.621-.853.74 0 1.295.299 1.664.896.37.597.555 1.337.555 2.219a5.77 5.77 0 0 1-.256 1.749c-.142.512-.27.939-.384 1.28Z" fill="#474747"/><defs><clipPath id="a"><path fill="#fff" transform="translate(.5)" d="M0 0h56v55H0z"/></clipPath></defs></svg>